<svg width="245" height="246" viewBox="0 0 245 246" fill="none" xmlns="http://www.w3.org/2000/svg">
<g clip-path="url(#clip0_2950_14597)">
<path d="M122.344 216.381C173.996 216.381 215.868 174.509 215.868 122.857C215.868 71.2056 173.996 29.3335 122.344 29.3335C70.6924 29.3335 28.8203 71.2056 28.8203 122.857C28.8203 174.509 70.6924 216.381 122.344 216.381Z" stroke="#F7F7F7" stroke-width="2.64032" stroke-miterlimit="10"/>
<path fill-rule="evenodd" clip-rule="evenodd" d="M129.388 120.461C131.247 120.875 133.193 120.593 134.858 119.67C136.524 118.747 137.794 117.245 138.428 115.45C142.022 105.264 151.589 78.1571 155.443 67.235C155.785 66.269 155.847 65.2259 155.62 64.2264C155.394 63.2269 154.889 62.312 154.165 61.5873C153.44 60.8627 152.525 60.3581 151.526 60.1319C150.526 59.9057 149.483 59.9671 148.517 60.3091L100.306 77.3239C98.5093 77.9576 97.0073 79.2272 96.0834 80.893C95.1595 82.5587 94.8778 84.5052 95.2914 86.3645C96.6578 92.5209 99.23 104.025 100.415 109.424C100.737 110.871 101.465 112.197 102.515 113.245C103.565 114.293 104.892 115.019 106.341 115.338L129.388 120.461ZM149.172 66.5806L132.648 113.408C132.512 113.79 132.24 114.11 131.885 114.307C131.529 114.503 131.114 114.563 130.718 114.474L107.665 109.354C107.356 109.285 107.073 109.13 106.849 108.906C106.626 108.682 106.47 108.399 106.401 108.091L101.278 85.0345C101.19 84.6381 101.25 84.2233 101.446 83.8679C101.643 83.5126 101.962 83.2411 102.345 83.1046L149.172 66.5806Z" fill="#F7F7F7" stroke="white" stroke-width="1.76125" stroke-miterlimit="10"/>
<path fill-rule="evenodd" clip-rule="evenodd" d="M113.59 97.8229L95.2061 116.21C94.9214 116.495 94.6956 116.833 94.5416 117.205C94.3876 117.577 94.3085 117.976 94.3086 118.379C94.3087 118.782 94.3882 119.18 94.5424 119.552C94.6967 119.925 94.9227 120.263 95.2076 120.547C95.4924 120.832 95.8306 121.058 96.2027 121.212C96.5749 121.366 96.9737 121.445 97.3764 121.445C97.7791 121.445 98.1779 121.365 98.5499 121.211C98.9219 121.057 99.2599 120.831 99.5446 120.546L117.929 102.161C118.227 101.88 118.466 101.541 118.632 101.165C118.797 100.789 118.885 100.384 118.891 99.9738C118.897 99.5633 118.821 99.1559 118.666 98.7755C118.512 98.3951 118.283 98.0495 117.992 97.7593C117.702 97.469 117.357 97.2399 116.976 97.0856C116.596 96.9312 116.188 96.8547 115.778 96.8607C115.367 96.8666 114.962 96.9548 114.587 97.1201C114.211 97.2854 113.872 97.5244 113.59 97.8229Z" fill="#F7F7F7" stroke="white" stroke-width="1.76125" stroke-miterlimit="10"/>
<path fill-rule="evenodd" clip-rule="evenodd" d="M84.5031 145.616L102.884 127.247C103.902 126.229 104.474 124.847 104.474 123.407C104.474 121.967 103.902 120.586 102.884 119.567C101.033 117.713 98.055 114.72 96.2008 112.884C95.6969 112.379 95.0985 111.979 94.4398 111.706C93.7812 111.433 93.0752 111.292 92.3622 111.292C91.6492 111.292 90.9432 111.433 90.2845 111.706C89.6259 111.979 89.0275 112.379 88.5235 112.884L70.1363 131.25C68.6758 132.712 67.8555 134.694 67.8555 136.761C67.8555 138.827 68.6758 140.809 70.1363 142.272L73.4689 145.604C74.9312 147.065 76.9133 147.885 78.98 147.885C81.0466 147.885 83.0288 147.065 84.491 145.604L84.5031 145.616ZM92.3622 117.701L98.052 123.394L80.1767 141.269C80.0232 141.424 79.8406 141.546 79.6393 141.63C79.4381 141.714 79.2222 141.757 79.0042 141.757C78.7862 141.757 78.5704 141.714 78.3691 141.63C78.1679 141.546 77.9852 141.424 77.8317 141.269L74.499 137.936C74.3442 137.783 74.2214 137.6 74.1375 137.399C74.0537 137.197 74.0105 136.982 74.0105 136.764C74.0105 136.546 74.0537 136.33 74.1375 136.129C74.2214 135.927 74.3442 135.745 74.499 135.591L92.3622 117.701Z" fill="#F7F7F7" stroke="white" stroke-width="1.76125" stroke-miterlimit="10"/>
<path d="M2.16906 122.521L2.38818 116.399L15.1108 113.52L14.9915 116.85L5.35877 119.03L5.3201 120.11L14.7724 122.972L14.6532 126.303L2.16906 122.521Z" fill="#F7F7F7"/>
<path d="M11.7161 108.741L11.3756 111.149L2.52601 113.264L3.01786 109.785L8.65877 108.491L8.84794 107.153L3.78715 104.345L4.26639 100.957L16.0707 107.538L15.5914 110.927L11.7161 108.741Z" fill="#F7F7F7"/>
<path d="M14.3743 93.8373C14.4804 94.1007 14.5584 94.4004 14.6085 94.7363C14.656 95.0343 14.6752 95.3934 14.6663 95.8135C14.6488 96.219 14.5725 96.6839 14.4374 97.2082C14.2572 97.9072 13.9902 98.5093 13.6364 99.0145C13.2825 99.5197 12.8565 99.9193 12.3583 100.213C11.8601 100.507 11.3043 100.687 10.691 100.753C10.0778 100.818 9.42161 100.761 8.72258 100.581L4.52838 99.4998L5.36164 96.2668L9.2937 97.2802C9.86457 97.4274 10.3567 97.374 10.77 97.1202C11.1832 96.8665 11.4755 96.4075 11.6466 95.7434C11.7487 95.3473 11.798 94.9873 11.7945 94.6634C11.7911 94.3394 11.7697 94.0606 11.7306 93.8269C11.6771 93.5522 11.5972 93.3079 11.4908 93.0941L6.51018 91.8105L7.34343 88.5774L19.5765 91.7303L18.7433 94.9633L14.3743 93.8373Z" fill="#F7F7F7"/>
<path d="M8.34071 85.232L9.62533 82.1565L18.4363 85.8367L19.6862 82.8443L10.8752 79.1641L12.1599 76.0886L20.9708 79.7688L22.2137 76.7931L13.4028 73.1128L14.6944 70.0207L26.3314 74.8814L19.9778 90.0927L8.34071 85.232Z" fill="#F7F7F7"/>
<path d="M17.5456 65.2282L20.6696 59.9603L33.2612 63.4482L31.5154 66.3921L29.0247 65.648L26.5438 69.8314L28.3914 71.6601L26.6456 74.6039L17.5456 65.2282ZM26.1781 64.7976L22.0632 63.614L21.42 64.6985L24.4323 67.7415L26.1781 64.7976Z" fill="#F7F7F7"/>
<path d="M31.4014 58.5536C31.0395 58.7305 30.673 58.8737 30.3021 58.9832C29.9384 59.0832 29.568 59.1327 29.1909 59.1317C28.8137 59.1307 28.4371 59.0696 28.0611 58.9485C27.6828 58.8105 27.3075 58.5993 26.9354 58.3149C26.4487 57.9429 26.0683 57.501 25.7943 56.9893C25.5107 56.4702 25.3428 55.9186 25.2904 55.3343C25.2454 54.7406 25.3182 54.131 25.5088 53.5058C25.6972 52.8637 26.0248 52.2373 26.4916 51.6265L30.3207 46.6165L40.3407 54.2746L38.3168 56.9228L35.3107 54.6253L33.8885 56.4862L35.5817 60.5014L33.3937 63.3642L31.4014 58.5536ZM32.8773 52.7655L30.7302 51.1245L28.9797 53.4148C28.6515 53.8442 28.506 54.2621 28.5431 54.6684C28.5708 55.0674 28.7277 55.3763 29.014 55.5952C29.3003 55.814 29.6443 55.8879 30.0462 55.8171C30.4384 55.739 30.7987 55.4852 31.1269 55.0558L32.8773 52.7655Z" fill="#F7F7F7"/>
<path d="M36.0963 40.2563L38.5183 37.9666L41.7362 41.3706L42.7836 40.3805L41.7914 34.8725L44.5408 32.2734L45.7448 39.3167L53.4008 41.2524L50.6514 43.8515L45.0185 42.4824L43.8402 43.5963L47.1819 47.1313L44.7598 49.4209L36.0963 40.2563Z" fill="#F7F7F7"/>
<path d="M58.7435 37.7799C57.9137 38.395 57.0477 38.8202 56.1456 39.0553C55.2363 39.2809 54.3484 39.3336 53.4819 39.2134C52.625 39.0861 51.817 38.803 51.058 38.3639C50.3086 37.9177 49.6656 37.3328 49.1292 36.6092C48.5927 35.8855 48.22 35.1003 48.0109 34.2535C47.8115 33.3996 47.7754 32.5443 47.9027 31.6874C48.0396 30.8233 48.3518 29.9939 48.839 29.1991C49.3192 28.3946 49.9741 27.6848 50.8039 27.0697C51.6337 26.4546 52.5033 26.0342 53.4126 25.8087C54.3147 25.5735 55.1942 25.5196 56.0511 25.6469C56.9176 25.767 57.7256 26.0502 58.475 26.4964C59.234 26.9354 59.8818 27.5168 60.4183 28.2404C60.9547 28.9641 61.3227 29.7529 61.5221 30.6068C61.7311 31.4535 61.7672 32.3089 61.6303 33.1729C61.503 34.0298 61.1992 34.8605 60.7191 35.6649C60.2318 36.4598 59.5733 37.1647 58.7435 37.7799ZM56.9195 35.3194C57.3344 35.0119 57.6655 34.6618 57.9127 34.2692C58.1528 33.867 58.3004 33.451 58.3557 33.0213C58.4206 32.5845 58.3882 32.1375 58.2587 31.6803C58.1388 31.216 57.9179 30.7668 57.596 30.3326C57.2741 29.8984 56.9085 29.5565 56.4991 29.3067C56.0994 29.0499 55.6811 28.889 55.2442 28.8241C54.817 28.752 54.3797 28.7772 53.9322 28.8996C53.4776 29.0124 53.0428 29.2226 52.6279 29.5302C52.213 29.8377 51.8855 30.1926 51.6454 30.5949C51.3982 30.9874 51.2422 31.4021 51.1773 31.839C51.122 32.2687 51.1544 32.7157 51.2743 33.18C51.4038 33.6371 51.6296 34.0828 51.9514 34.517C52.2733 34.9512 52.6341 35.2967 53.0339 35.5536C53.4432 35.8033 53.8615 35.9642 54.2887 36.0362C54.7256 36.1011 55.1713 36.0772 55.626 35.9644C56.0735 35.842 56.5046 35.627 56.9195 35.3194Z" fill="#F7F7F7"/>
<path d="M59.1332 21.597L63.2615 19.3835L68.6287 23.865L69.0256 23.6522L68.263 16.7017L72.3912 14.4881L78.3508 25.6026L75.4134 27.1776L72.0079 20.8265L71.4799 19.2698L71.3211 19.3549L71.9871 25.7439L68.7321 27.4892L63.7791 23.3989L63.6203 23.484L64.6247 24.7853L68.0302 31.1365L65.0928 32.7115L59.1332 21.597Z" fill="#F7F7F7"/>
<path d="M75.5167 13.245L86.338 9.2636L90.6927 21.0993L87.5647 22.2502L84.2675 13.2889L79.7023 14.9686L82.9995 23.9299L79.8714 25.0808L75.5167 13.245Z" fill="#F7F7F7"/>
<path d="M91.6408 7.85655L97.6008 6.44217L103.843 17.9224L100.513 18.7128L99.3169 16.4043L94.5839 17.5275L94.5528 20.1272L91.2222 20.9176L91.6408 7.85655ZM97.9501 13.766L95.9415 9.98377L94.7145 10.275L94.6195 14.5563L97.9501 13.766Z" fill="#F7F7F7"/>
<path d="M103.088 5.28016L106.403 4.93466L106.889 9.59367L111.727 9.08942L111.242 4.43041L114.557 4.08491L115.864 16.6284L112.549 16.9739L112.045 12.1357L107.207 12.6399L107.711 17.4781L104.396 17.8236L103.088 5.28016Z" fill="#F7F7F7"/>
<path d="M117.729 3.87001L121.062 3.90334L121 10.119L120.713 11.7377L120.893 11.7395L125.566 3.94839L129.439 3.98712L129.313 16.5985L125.98 16.5652L126.042 10.3496L126.329 8.73082L126.149 8.72902L121.476 16.5202L117.603 16.4814L117.729 3.87001Z" fill="#F7F7F7"/>
<path d="M133.746 12.539C133.412 12.3138 133.105 12.0679 132.825 11.8013C132.556 11.5362 132.329 11.2401 132.141 10.9128C131.953 10.5856 131.818 10.2288 131.735 9.84256C131.666 9.44592 131.661 9.01535 131.722 8.55085C131.801 7.94342 131.994 7.39319 132.3 6.90016C132.608 6.39522 133.002 5.97415 133.482 5.63695C133.974 5.3013 134.538 5.05988 135.175 4.91269C135.826 4.75515 136.532 4.72601 137.294 4.82528L143.547 5.63961L141.918 18.1454L138.613 17.715L139.102 13.9632L136.779 13.6608L134.147 17.1333L130.574 16.668L133.746 12.539ZM139.497 10.9261L139.846 8.2463L136.988 7.87404C136.452 7.80424 136.017 7.88692 135.684 8.12208C135.352 8.34533 135.163 8.6356 135.116 8.99291C135.07 9.35022 135.178 9.68523 135.44 9.99795C135.703 10.2988 136.103 10.4841 136.639 10.5539L139.497 10.9261Z" fill="#F7F7F7"/>
<path d="M154.409 21.7693C153.422 21.4635 152.566 21.022 151.839 20.4448C151.116 19.8561 150.544 19.1882 150.121 18.4411C149.714 17.6862 149.463 16.8728 149.369 16.001C149.289 15.1213 149.39 14.2283 149.671 13.322C149.952 12.4157 150.372 11.628 150.931 10.9589C151.506 10.2819 152.173 9.75294 152.932 9.37213C153.706 8.9834 154.556 8.75643 155.482 8.69121C156.411 8.61452 157.369 8.72907 158.356 9.03487C159.009 9.23754 159.579 9.4895 160.064 9.79073C160.549 10.092 160.963 10.4213 161.304 10.7788C161.661 11.1283 161.95 11.4945 162.171 11.8773C162.407 12.2522 162.594 12.6243 162.731 12.9937C163.053 13.8607 163.199 14.7674 163.17 15.714L159.9 14.7006C159.854 14.3217 159.735 13.9577 159.541 13.6084C159.383 13.3079 159.137 13.0054 158.804 12.7009C158.486 12.3885 158.034 12.1417 157.449 11.9604C156.956 11.8075 156.476 11.753 156.009 11.7971C155.547 11.8297 155.12 11.949 154.729 12.1548C154.35 12.3642 154.008 12.6545 153.705 13.0256C153.413 13.4003 153.186 13.8458 153.026 14.3621C152.866 14.8783 152.801 15.3736 152.83 15.8478C152.871 16.3257 152.988 16.7582 153.182 17.1453C153.388 17.5361 153.671 17.8815 154.031 18.1816C154.394 18.4702 154.822 18.691 155.315 18.8438C155.969 19.0465 156.523 19.1051 156.977 19.0194C157.447 18.9259 157.837 18.7828 158.148 18.59C158.504 18.3735 158.806 18.0898 159.053 17.7388L162.323 18.7522C161.767 19.6112 161.102 20.3167 160.327 20.8688C160.002 21.1074 159.631 21.3319 159.213 21.5421C158.8 21.7408 158.345 21.8891 157.85 21.987C157.354 22.0849 156.821 22.1209 156.251 22.095C155.677 22.0806 155.063 21.972 154.409 21.7693Z" fill="#F7F7F7"/>
<path d="M168.431 16.4033L164.809 14.7931L166.054 11.9944L176.343 16.569L175.098 19.3676L171.477 17.7574L167.597 26.4825L164.552 25.1285L168.431 16.4033Z" fill="#F7F7F7"/>
<path d="M178.282 17.5975L183.574 20.6824C184.259 21.0817 184.816 21.5454 185.245 22.0735C185.684 22.6077 185.995 23.1713 186.178 23.7643C186.36 24.3573 186.413 24.9582 186.336 25.5669C186.276 26.1712 186.089 26.7432 185.774 27.2827C185.453 27.8327 185.045 28.2828 184.549 28.6331C184.063 28.9894 183.517 29.2343 182.911 29.3676C182.305 29.5009 181.662 29.508 180.98 29.3889C180.309 29.2758 179.631 29.0197 178.947 28.6205L176.534 27.2141L174.81 30.1714L171.931 28.4928L178.282 17.5975ZM180.411 25.9291C180.961 26.2497 181.441 26.3693 181.85 26.2879C182.264 26.1961 182.587 25.9531 182.817 25.5588C183.047 25.1645 183.096 24.7694 182.966 24.3734C182.841 23.9671 182.504 23.6037 181.954 23.2831L179.619 21.9221L178.076 24.5681L180.411 25.9291Z" fill="#F7F7F7"/>
<path d="M187.586 39.0403C186.766 38.4128 186.118 37.698 185.642 36.8959C185.174 36.0844 184.878 35.2456 184.755 34.3796C184.64 33.5209 184.689 32.6661 184.901 31.8153C185.123 30.9718 185.507 30.1923 186.055 29.4768C186.602 28.7612 187.254 28.186 188.01 27.7511C188.775 27.3235 189.587 27.0525 190.446 26.9381C191.314 26.831 192.198 26.9018 193.096 27.1505C194.002 27.3896 194.865 27.823 195.686 28.4505C196.506 29.078 197.15 29.7976 197.618 30.6091C198.094 31.4112 198.388 32.2416 198.503 33.1002C198.627 33.9662 198.578 34.821 198.356 35.6645C198.144 36.5153 197.764 37.2985 197.217 38.014C196.67 38.7295 196.013 39.3011 195.248 39.7287C194.492 40.1636 193.68 40.4346 192.811 40.5417C191.953 40.6561 191.07 40.5938 190.165 40.3546C189.266 40.1059 188.407 39.6678 187.586 39.0403ZM189.447 36.6075C189.857 36.9213 190.285 37.1427 190.731 37.2718C191.183 37.3914 191.624 37.4184 192.052 37.3527C192.49 37.2944 192.911 37.1398 193.314 36.889C193.727 36.6454 194.098 36.309 194.426 35.8797C194.755 35.4504 194.982 35.0045 195.109 34.5421C195.246 34.0869 195.285 33.6405 195.226 33.2027C195.178 32.7722 195.033 32.3589 194.791 31.9626C194.557 31.5568 194.235 31.197 193.825 30.8833C193.415 30.5695 192.983 30.3529 192.53 30.2333C192.085 30.1042 191.643 30.0688 191.205 30.1271C190.777 30.1927 190.356 30.3473 189.943 30.5908C189.54 30.8417 189.174 31.1818 188.845 31.6111C188.517 32.0404 188.285 32.4826 188.148 32.9378C188.021 33.4002 187.982 33.8467 188.031 34.2771C188.089 34.7149 188.235 35.1367 188.469 35.5425C188.711 35.9387 189.037 36.2937 189.447 36.6075Z" fill="#F7F7F7"/>
<path d="M203.065 34.8975L205.428 37.2473L201.046 41.6554L199.712 42.6148L199.839 42.7418L208.623 40.4227L211.37 43.1535L202.479 52.0975L200.115 49.7478L204.497 45.3396L205.832 44.3802L205.704 44.2532L196.921 46.5724L194.174 43.8415L203.065 34.8975ZM208.17 38.0672C207.429 37.3305 207.044 36.5758 207.017 35.803C206.997 35.0387 207.293 34.3499 207.902 33.7366L209.436 35.2607C208.97 35.7292 208.992 36.2175 209.504 36.7256C210.015 37.2337 210.503 37.2534 210.969 36.7849L212.502 38.3091C211.892 38.9224 211.201 39.2175 210.428 39.1943C209.664 39.1796 208.911 38.8039 208.17 38.0672Z" fill="#F7F7F7"/>
<path d="M213.624 45.5263L215.691 48.1594L210.781 52.0131L209.332 52.8049L209.444 52.9473L218.483 51.7177L220.885 54.7777L210.922 62.5968L208.855 59.9637L213.766 56.11L215.214 55.3182L215.103 55.1759L206.063 56.4055L203.661 53.3454L213.624 45.5263Z" fill="#F7F7F7"/>
<path d="M222.602 57.6143L224.302 60.4807L220.274 62.8696L222.754 67.053L226.783 64.664L228.483 67.5304L217.637 73.9623L215.937 71.0959L220.12 68.615L217.64 64.4316L213.456 66.9125L211.756 64.0461L222.602 57.6143Z" fill="#F7F7F7"/>
<path d="M220.837 73.2368L221.416 74.5565L231.173 73.028L233.672 78.7194L225.942 84.8671L226.522 86.1868L221.737 88.2869L220.47 85.3999L222.45 84.5309L219.3 77.3548L217.32 78.2238L216.053 75.3368L220.837 73.2368ZM224.675 81.9801L229.926 77.8059L229.31 76.4037L222.684 77.4435L224.675 81.9801Z" fill="#F7F7F7"/>
<path d="M228.865 90.4879L228.141 88.166L235.233 82.4632L236.279 85.8171L231.736 89.4041L232.138 90.694L237.915 91.0629L238.934 94.3308L225.446 93.4415L224.427 90.1736L228.865 90.4879Z" fill="#F7F7F7"/>
<path d="M227.715 104.524C227.524 103.509 227.514 102.546 227.684 101.633C227.867 100.719 228.189 99.9007 228.652 99.178C229.129 98.4649 229.731 97.8628 230.457 97.3717C231.197 96.8901 232.034 96.5615 232.966 96.386C233.899 96.2105 234.792 96.2136 235.645 96.3952C236.512 96.5864 237.291 96.9286 237.983 97.4217C238.688 97.9244 239.287 98.5696 239.777 99.3572C240.279 100.143 240.626 101.043 240.817 102.058C240.944 102.731 240.987 103.352 240.948 103.922C240.908 104.491 240.811 105.011 240.655 105.48C240.512 105.959 240.324 106.386 240.089 106.76C239.868 107.144 239.626 107.483 239.363 107.776C238.748 108.467 238.015 109.02 237.164 109.437L236.531 106.073C236.845 105.855 237.11 105.579 237.329 105.245C237.52 104.964 237.673 104.605 237.786 104.168C237.913 103.741 237.92 103.227 237.807 102.625C237.712 102.117 237.535 101.667 237.278 101.276C237.033 100.882 236.728 100.561 236.363 100.311C236.001 100.074 235.585 99.908 235.115 99.8132C234.647 99.7301 234.147 99.7386 233.616 99.8386C233.085 99.9385 232.617 100.112 232.211 100.36C231.808 100.619 231.48 100.925 231.229 101.278C230.98 101.643 230.807 102.054 230.71 102.512C230.624 102.968 230.629 103.45 230.725 103.958C230.852 104.63 231.059 105.148 231.347 105.509C231.649 105.88 231.958 106.158 232.274 106.343C232.632 106.556 233.024 106.69 233.449 106.745L234.083 110.109C233.064 110.019 232.129 109.761 231.279 109.335C230.916 109.159 230.544 108.935 230.163 108.665C229.794 108.392 229.45 108.06 229.132 107.667C228.813 107.275 228.532 106.821 228.288 106.305C228.033 105.79 227.842 105.197 227.715 104.524Z" fill="#F7F7F7"/>
<path d="M239.026 114.392L238.748 110.438L241.803 110.223L242.594 121.455L239.539 121.67L239.261 117.716L229.735 118.387L229.501 115.063L239.026 114.392Z" fill="#F7F7F7"/>
<path d="M242.621 123.657L242.376 129.782C242.344 130.575 242.196 131.285 241.93 131.912C241.664 132.551 241.311 133.09 240.873 133.53C240.434 133.969 239.928 134.298 239.354 134.515C238.791 134.746 238.198 134.848 237.573 134.823C236.936 134.798 236.347 134.648 235.804 134.374C235.262 134.111 234.789 133.743 234.387 133.27C233.985 132.797 233.677 132.231 233.462 131.573C233.248 130.927 233.156 130.207 233.188 129.415L233.299 126.622L229.876 126.485L230.01 123.152L242.621 123.657ZM236.254 129.447C236.229 130.084 236.348 130.564 236.612 130.887C236.887 131.211 237.253 131.382 237.71 131.4C238.166 131.418 238.539 131.277 238.828 130.976C239.128 130.675 239.291 130.206 239.317 129.57L239.425 126.867L236.362 126.745L236.254 129.447Z" fill="#F7F7F7"/>
<path d="M241.868 137.605L241.338 140.895L235.201 139.907L233.643 139.382L233.615 139.56L240.622 145.342L240.006 149.166L227.555 147.161L228.085 143.87L234.221 144.859L235.779 145.383L235.808 145.205L228.801 139.424L229.417 135.599L241.868 137.605Z" fill="#F7F7F7"/>
<path d="M239.264 152.353L238.331 155.553L232.364 153.813L230.883 153.099L230.832 153.272L237.069 159.877L235.985 163.596L223.878 160.064L224.811 156.865L230.778 158.605L232.259 159.319L232.309 159.146L226.072 152.541L227.157 148.822L239.264 152.353Z" fill="#F7F7F7"/>
<path d="M23.1597 160.132L28.0381 170.58L16.6111 175.916L15.2009 172.896L23.8528 168.856L21.7947 164.448L13.1428 168.488L11.7326 165.468L23.1597 160.132Z" fill="#F7F7F7"/>
<path d="M21.1255 184.144C20.5753 183.27 20.2172 182.374 20.0513 181.456C19.8955 180.533 19.9105 179.643 20.0961 178.788C20.2882 177.944 20.632 177.16 21.1274 176.436C21.6293 175.723 22.2614 175.126 23.0238 174.646C23.7861 174.166 24.5974 173.854 25.4576 173.71C26.3242 173.576 27.1798 173.605 28.0245 173.798C28.8757 174 29.679 174.374 30.4344 174.92C31.2001 175.46 31.858 176.167 32.4083 177.041C32.9586 177.916 33.3116 178.815 33.4673 179.738C33.6333 180.656 33.6202 181.537 33.4281 182.382C33.2424 183.236 32.8987 184.021 32.3968 184.734C31.9013 185.457 31.2724 186.059 30.5101 186.539C29.7477 187.019 28.9332 187.326 28.0667 187.46C27.2065 187.604 26.3508 187.575 25.4997 187.372C24.655 187.18 23.8498 186.814 23.0842 186.275C22.3287 185.728 21.6758 185.018 21.1255 184.144ZM23.7175 182.512C23.9927 182.949 24.3166 183.306 24.6892 183.582C25.072 183.852 25.4756 184.031 25.8998 184.119C26.3304 184.217 26.7786 184.219 27.2443 184.124C27.7163 184.04 28.1811 183.854 28.6385 183.566C29.0959 183.278 29.4647 182.939 29.7448 182.55C30.0313 182.171 30.2235 181.766 30.3214 181.336C30.4257 180.915 30.4339 180.477 30.3458 180.022C30.268 179.56 30.0914 179.11 29.8163 178.673C29.5412 178.236 29.2122 177.882 28.8294 177.613C28.4567 177.336 28.0551 177.149 27.6244 177.051C27.2002 176.963 26.752 176.962 26.28 177.046C25.8143 177.14 25.3528 177.332 24.8953 177.619C24.4379 177.907 24.066 178.241 23.7795 178.62C23.4994 179.009 23.3071 179.414 23.2028 179.834C23.1049 180.265 23.0949 180.711 23.1728 181.173C23.2608 181.629 23.4424 182.075 23.7175 182.512Z" fill="#F7F7F7"/>
<path d="M30.4823 196.984C29.8223 196.189 29.3454 195.352 29.0516 194.472C28.7671 193.584 28.6517 192.712 28.7054 191.855C28.776 191 29.0096 190.182 29.4061 189.4C29.8196 188.619 30.3913 187.926 31.1212 187.32C31.8511 186.713 32.6331 186.283 33.467 186.027C34.3179 185.773 35.1653 185.694 36.0095 185.789C36.8705 185.886 37.7066 186.16 38.5178 186.61C39.3383 187.053 40.0785 187.671 40.7385 188.466C41.1759 188.993 41.5156 189.515 41.7577 190.032C41.9999 190.549 42.1666 191.05 42.2581 191.537C42.3665 192.024 42.4088 192.489 42.385 192.93C42.3781 193.373 42.3312 193.786 42.2445 194.171C42.0415 195.073 41.6695 195.913 41.1284 196.69L38.9414 194.057C39.1096 193.714 39.2079 193.344 39.2362 192.946C39.2675 192.607 39.2267 192.22 39.1136 191.783C39.0174 191.347 38.7737 190.894 38.3823 190.423C38.0523 190.026 37.6799 189.718 37.2651 189.501C36.8595 189.275 36.4368 189.142 35.997 189.102C35.5649 189.07 35.1204 189.127 34.6634 189.272C34.2141 189.427 33.7816 189.677 33.3658 190.022C32.95 190.368 32.6249 190.747 32.3904 191.16C32.1637 191.583 32.0261 192.009 31.9777 192.44C31.937 192.88 31.9854 193.323 32.1231 193.771C32.27 194.211 32.5084 194.63 32.8384 195.027C33.2758 195.554 33.7081 195.905 34.1354 196.081C34.5795 196.259 34.9846 196.352 35.3505 196.36C35.7673 196.373 36.1749 196.3 36.5735 196.141L38.7605 198.774C37.8264 199.191 36.8841 199.419 35.9336 199.459C35.5307 199.481 35.097 199.467 34.6327 199.415C34.1776 199.356 33.7156 199.232 33.2469 199.044C32.7782 198.855 32.3119 198.595 31.848 198.262C31.3749 197.937 30.9197 197.511 30.4823 196.984Z" fill="#F7F7F7"/>
<path d="M45.3379 198.498L42.4705 195.762L44.5849 193.546L52.7311 201.32L50.6167 203.536L47.7492 200.8L41.157 207.708L38.7458 205.406L45.3379 198.498Z" fill="#F7F7F7"/>
<path d="M54.3832 202.552L59.2187 206.312L54.1791 218.369L51.4769 216.268L52.5275 213.89L48.6875 210.904L46.6414 212.508L43.9392 210.406L54.3832 202.552ZM53.7282 211.172L55.4186 207.237L54.423 206.463L51.026 209.07L53.7282 211.172Z" fill="#F7F7F7"/>
<path d="M62.0998 208.571L67.8425 212.085C68.4142 212.434 68.8758 212.815 69.2274 213.227C69.5789 213.638 69.8278 214.057 69.974 214.483C70.1201 214.909 70.1699 215.332 70.1231 215.753C70.0827 216.163 69.95 216.552 69.7252 216.919C69.4441 217.379 69.1211 217.7 68.7562 217.884C68.4078 218.064 68.0815 218.173 67.7774 218.211C67.4098 218.239 67.0447 218.205 66.6822 218.109L66.6354 218.186C66.9507 218.519 67.1959 218.887 67.371 219.288C67.524 219.634 67.6015 220.047 67.6036 220.525C67.6119 220.993 67.4474 221.503 67.1101 222.054C66.8415 222.493 66.5018 222.853 66.0909 223.135C65.6863 223.407 65.2281 223.582 64.7163 223.662C64.2107 223.732 63.6528 223.692 63.0424 223.543C62.4422 223.4 61.8052 223.123 61.1314 222.711L55.5418 219.291L62.0998 208.571ZM62.2304 220.226C62.7306 220.532 63.1606 220.655 63.5203 220.594C63.8801 220.534 64.1536 220.351 64.341 220.044C64.5284 219.738 64.5671 219.411 64.4572 219.063C64.3473 218.715 64.0422 218.388 63.542 218.082L61.0917 216.583L59.7802 218.727L62.2304 220.226ZM64.7004 215.845C65.0884 216.082 65.4273 216.17 65.7173 216.109C66.0174 216.054 66.2487 215.894 66.4111 215.628C66.5735 215.363 66.6107 215.084 66.5229 214.792C66.4454 214.506 66.2126 214.244 65.8246 214.007L63.5276 212.602L62.4033 214.439L64.7004 215.845Z" fill="#F7F7F7"/>
<path d="M81.1852 232.362L67.4279 226.38L72.4725 214.778L75.5389 216.111L71.7194 224.896L74.7029 226.193L78.5224 217.408L81.5888 218.741L77.7693 227.526L80.7362 228.816L84.5557 220.031L87.6386 221.372L83.8192 230.157L85.3109 230.805L83.221 235.612L80.3204 234.351L81.1852 232.362Z" fill="#F7F7F7"/>
<path d="M89.3065 221.652L92.5396 222.518L90.9235 228.548L90.2398 230.05L90.4145 230.097L96.9085 223.69L100.666 224.697L97.3869 236.93L94.1538 236.063L95.7699 230.034L96.4536 228.531L96.2788 228.485L89.7849 234.892L86.0276 233.885L89.3065 221.652Z" fill="#F7F7F7"/>
<path d="M101.906 225.027L105.204 225.507L104.529 230.142L105.956 230.35L109.661 226.155L113.405 226.7L108.627 232.013L111.856 239.219L108.112 238.674L105.693 233.406L104.088 233.173L103.388 237.987L100.09 237.507L101.906 225.027Z" fill="#F7F7F7"/>
<path d="M118.629 226.9L127.817 226.882L127.823 229.945L121.968 229.956L121.986 239.505L118.653 239.511L118.629 226.9Z" fill="#F7F7F7"/>
<path d="M136.286 239.158C135.264 239.271 134.305 239.203 133.411 238.953C132.515 238.692 131.724 238.292 131.039 237.754C130.365 237.215 129.811 236.567 129.378 235.808C128.956 235.049 128.696 234.223 128.597 233.331C128.498 232.439 128.571 231.577 128.815 230.743C129.071 229.908 129.469 229.153 130.008 228.48C130.559 227.805 131.243 227.247 132.061 226.807C132.878 226.355 133.797 226.072 134.82 225.959C135.842 225.845 136.802 225.919 137.697 226.181C138.592 226.43 139.376 226.825 140.05 227.364C140.736 227.902 141.289 228.55 141.711 229.31C142.144 230.068 142.41 230.893 142.509 231.785C142.608 232.677 142.53 233.54 142.273 234.375C142.029 235.209 141.631 235.964 141.08 236.639C140.541 237.313 139.864 237.875 139.047 238.327C138.229 238.767 137.309 239.044 136.286 239.158ZM135.949 236.125C136.461 236.069 136.921 235.933 137.331 235.719C137.739 235.493 138.075 235.209 138.338 234.867C138.612 234.523 138.809 234.122 138.926 233.664C139.056 233.204 139.091 232.707 139.031 232.172C138.972 231.637 138.828 231.159 138.601 230.739C138.386 230.317 138.106 229.969 137.763 229.694C137.431 229.418 137.042 229.221 136.596 229.102C136.148 228.971 135.668 228.934 135.157 228.991C134.645 229.048 134.186 229.189 133.777 229.415C133.368 229.629 133.026 229.908 132.751 230.251C132.488 230.594 132.292 230.995 132.162 231.454C132.045 231.913 132.016 232.41 132.075 232.945C132.135 233.48 132.272 233.958 132.487 234.379C132.715 234.8 132.994 235.148 133.326 235.424C133.669 235.699 134.065 235.901 134.513 236.032C134.959 236.151 135.438 236.182 135.949 236.125Z" fill="#F7F7F7"/>
<path d="M143.737 234.671L145.136 234.321L145.27 224.446L151.3 222.94L156.06 231.594L157.459 231.244L158.725 236.313L155.666 237.077L155.142 234.98L147.538 236.878L148.062 238.976L145.003 239.74L143.737 234.671ZM153.001 232.357L149.77 226.479L148.284 226.85L148.195 233.558L153.001 232.357Z" fill="#F7F7F7"/>
<path d="M157.443 220.987L163.168 218.811L170.849 229.383L167.649 230.599L166.163 228.466L161.616 230.194L161.923 232.775L158.723 233.992L157.443 220.987ZM164.466 226.027L161.983 222.538L160.804 222.986L161.266 227.243L164.466 226.027Z" fill="#F7F7F7"/>
<path d="M174.592 224.381L176.995 220.033C177.277 219.531 177.502 219.087 177.671 218.703C177.844 218.303 177.969 217.95 178.045 217.646C178.116 217.331 178.14 217.056 178.118 216.82C178.089 216.575 178.013 216.342 177.89 216.123C177.69 215.768 177.397 215.54 177.01 215.441C176.624 215.342 176.212 215.416 175.773 215.663C175.376 215.887 175.101 216.132 174.947 216.397C174.788 216.652 174.695 216.89 174.668 217.111C174.638 217.376 174.667 217.635 174.755 217.888L171.777 219.566C171.48 218.77 171.358 217.978 171.41 217.192C171.431 216.863 171.492 216.519 171.593 216.16C171.687 215.79 171.846 215.425 172.07 215.065C172.288 214.694 172.574 214.334 172.927 213.983C173.28 213.633 173.729 213.305 174.272 212.999C174.972 212.605 175.655 212.351 176.321 212.237C176.981 212.113 177.601 212.115 178.182 212.242C178.757 212.359 179.273 212.591 179.73 212.939C180.182 213.277 180.558 213.712 180.858 214.245C181.123 214.715 181.294 215.19 181.371 215.669C181.453 216.132 181.452 216.608 181.369 217.095C181.296 217.577 181.154 218.07 180.943 218.574C180.725 219.068 180.458 219.583 180.141 220.12L179.397 221.365L178.902 221.953L178.991 222.11L180 221.335L183.683 219.26L185.095 221.768L176.004 226.889L174.592 224.381Z" fill="#F7F7F7"/>
<path d="M192.138 217.426C191.404 217.949 190.63 218.302 189.816 218.484C189.002 218.666 188.198 218.686 187.403 218.544C186.602 218.392 185.832 218.078 185.094 217.601C184.366 217.118 183.712 216.47 183.134 215.658C182.562 214.856 182.166 214.032 181.947 213.185C181.73 212.322 181.684 211.492 181.809 210.695C181.927 209.888 182.205 209.13 182.643 208.419C183.08 207.709 183.666 207.093 184.4 206.57C185.133 206.047 185.907 205.694 186.721 205.512C187.535 205.33 188.343 205.315 189.144 205.467C189.939 205.608 190.704 205.926 191.439 206.42C192.177 206.897 192.832 207.536 193.404 208.338C193.982 209.15 194.376 209.982 194.586 210.836C194.806 211.682 194.857 212.509 194.739 213.316C194.614 214.113 194.332 214.866 193.895 215.577C193.457 216.287 192.871 216.903 192.138 217.426ZM190.36 214.932C190.693 214.695 190.954 214.42 191.144 214.108C191.337 213.778 191.448 213.427 191.476 213.053C191.507 212.662 191.448 212.247 191.297 211.808C191.15 211.353 190.898 210.876 190.543 210.377C190.187 209.878 189.822 209.49 189.446 209.212C189.074 208.917 188.701 208.725 188.329 208.637C187.959 208.532 187.59 208.521 187.223 208.606C186.858 208.674 186.51 208.827 186.177 209.064C185.512 209.538 185.139 210.173 185.057 210.969C184.978 211.748 185.291 212.631 185.995 213.619C186.699 214.607 187.435 215.195 188.205 215.385C188.977 215.557 189.695 215.406 190.36 214.932Z" fill="#F7F7F7"/>
<path d="M196.489 210.151L197.893 205.379C198.058 204.826 198.182 204.344 198.264 203.931C198.346 203.502 198.392 203.13 198.4 202.816C198.401 202.493 198.364 202.219 198.291 201.994C198.21 201.76 198.085 201.549 197.917 201.361C197.644 201.057 197.308 200.899 196.909 200.886C196.51 200.873 196.123 201.035 195.747 201.372C195.408 201.677 195.192 201.976 195.1 202.269C194.999 202.553 194.96 202.806 194.982 203.028C195.011 203.293 195.095 203.54 195.236 203.769L192.69 206.056C192.226 205.343 191.934 204.596 191.815 203.815C191.764 203.489 191.749 203.14 191.769 202.767C191.781 202.384 191.857 201.993 191.998 201.592C192.13 201.183 192.331 200.768 192.6 200.349C192.869 199.93 193.236 199.511 193.701 199.094C194.3 198.556 194.912 198.159 195.538 197.904C196.156 197.639 196.763 197.506 197.358 197.504C197.946 197.493 198.501 197.608 199.024 197.848C199.539 198.08 200.001 198.424 200.41 198.88C200.771 199.282 201.042 199.709 201.222 200.161C201.403 200.596 201.505 201.06 201.53 201.555C201.563 202.042 201.531 202.554 201.434 203.094C201.329 203.624 201.18 204.186 200.987 204.779L200.53 206.158L200.175 206.841L200.295 206.975L201.113 205.998L204.263 203.169L206.189 205.313L198.415 212.296L196.489 210.151Z" fill="#F7F7F7"/>
<path d="M211.297 200.374C210.871 200.845 210.444 201.219 210.016 201.495C209.597 201.779 209.188 201.999 208.788 202.154C208.388 202.293 208.002 202.38 207.63 202.415C207.249 202.443 206.892 202.435 206.559 202.392C205.782 202.303 205.048 202.043 204.356 201.61L206.649 199.077C206.893 199.201 207.159 199.264 207.448 199.267C207.686 199.272 207.955 199.225 208.256 199.125C208.556 199.008 208.859 198.781 209.164 198.443C209.591 197.972 209.806 197.511 209.809 197.061C209.811 196.594 209.661 196.224 209.359 195.95C209.066 195.685 208.687 195.576 208.222 195.625C207.766 195.665 207.324 195.92 206.898 196.391L204.967 198.524L203.367 197.076L203.965 193.735L203.831 193.615L200.572 197.214L198.439 195.283L204.776 188.284L206.91 190.215L206.305 193.428L206.226 193.623L206.386 193.768L206.396 193.729C206.759 193.329 207.164 193.025 207.612 192.816C208.06 192.607 208.521 192.491 208.995 192.467C209.46 192.435 209.926 192.501 210.393 192.665C210.85 192.821 211.27 193.071 211.652 193.417C212.106 193.828 212.452 194.303 212.691 194.843C212.921 195.375 213.026 195.947 213.005 196.559C212.993 197.162 212.846 197.789 212.564 198.44C212.291 199.098 211.869 199.743 211.297 200.374Z" fill="#F7F7F7"/>
<path fill-rule="evenodd" clip-rule="evenodd" d="M117.625 125.254C115.765 124.841 113.817 125.124 112.152 126.049C110.486 126.975 109.217 128.479 108.585 130.277C104.991 140.451 95.4358 167.557 91.5699 178.479C91.2247 179.446 91.1608 180.491 91.3856 181.492C91.6104 182.494 92.1147 183.411 92.8398 184.138C93.565 184.864 94.4814 185.37 95.4825 185.596C96.4836 185.823 97.5285 185.761 98.4958 185.417L146.71 168.391C148.504 167.757 150.003 166.489 150.926 164.825C151.849 163.162 152.132 161.219 151.722 159.362C150.355 153.206 147.798 141.702 146.598 136.303C146.277 134.857 145.55 133.532 144.502 132.485C143.455 131.437 142.13 130.71 140.684 130.389L117.625 125.254ZM97.8414 179.134L114.365 132.307C114.501 131.924 114.773 131.604 115.128 131.408C115.484 131.211 115.899 131.152 116.295 131.24L139.351 136.361C139.66 136.43 139.942 136.586 140.166 136.809C140.39 137.033 140.545 137.315 140.615 137.624L145.735 160.68C145.823 161.076 145.764 161.492 145.567 161.847C145.371 162.203 145.051 162.474 144.668 162.61L97.8414 179.134Z" fill="#F7F7F7" stroke="white" stroke-width="1.76125" stroke-miterlimit="10"/>
<path fill-rule="evenodd" clip-rule="evenodd" d="M133.422 147.891L151.806 129.504C152.366 128.926 152.676 128.151 152.669 127.347C152.663 126.542 152.34 125.772 151.771 125.203C151.203 124.634 150.433 124.312 149.628 124.305C148.823 124.299 148.048 124.609 147.47 125.169L129.083 143.553C128.535 144.134 128.235 144.905 128.246 145.704C128.258 146.502 128.58 147.265 129.145 147.83C129.71 148.394 130.472 148.717 131.271 148.728C132.069 148.74 132.841 148.44 133.422 147.891Z" fill="#F7F7F7" stroke="white" stroke-width="1.76125" stroke-miterlimit="10"/>
<path fill-rule="evenodd" clip-rule="evenodd" d="M162.51 100.098L144.129 118.483C143.111 119.501 142.539 120.882 142.539 122.323C142.539 123.763 143.111 125.144 144.129 126.163C145.98 128.017 148.958 130.995 150.813 132.846C151.831 133.864 153.213 134.436 154.653 134.436C156.093 134.436 157.474 133.864 158.493 132.846L176.877 114.465C178.338 113.003 179.158 111.021 179.158 108.954C179.158 106.887 178.338 104.905 176.877 103.443L173.544 100.11C172.082 98.6499 170.1 97.8296 168.033 97.8296C165.967 97.8296 163.985 98.6499 162.522 100.11L162.51 100.098ZM154.654 128.014L148.961 122.321L166.837 104.446C166.99 104.291 167.173 104.168 167.374 104.084C167.575 104 167.791 103.957 168.009 103.957C168.227 103.957 168.443 104 168.644 104.084C168.846 104.168 169.028 104.291 169.182 104.446L172.514 107.779C172.669 107.932 172.792 108.115 172.876 108.316C172.96 108.517 173.003 108.733 173.003 108.951C173.003 109.169 172.96 109.385 172.876 109.586C172.792 109.787 172.669 109.97 172.514 110.124L154.654 128.014Z" fill="#F7F7F7" stroke="white" stroke-width="1.76125" stroke-miterlimit="10"/>
<path d="M9.26738 147.019C10.7181 147.019 11.8941 145.843 11.8941 144.392C11.8941 142.942 10.7181 141.766 9.26738 141.766C7.81666 141.766 6.64062 142.942 6.64062 144.392C6.64062 145.843 7.81666 147.019 9.26738 147.019Z" stroke="#F7F7F7" stroke-width="2.64032" stroke-miterlimit="10"/>
<path d="M220.615 179.959C222.066 179.959 223.242 178.783 223.242 177.332C223.242 175.881 222.066 174.705 220.615 174.705C219.164 174.705 217.988 175.881 217.988 177.332C217.988 178.783 219.164 179.959 220.615 179.959Z" stroke="#F7F7F7" stroke-width="2.64032" stroke-miterlimit="10"/>
<path d="M247.156 6.82764L231.16 22.8238" stroke="#F7F7F7"/>
<path d="M247.16 22.8238L231.164 6.82764" stroke="#F7F7F7"/>
</g>
<defs>
<clipPath id="clip0_2950_14597">
<rect width="245" height="245.406" fill="white"/>
</clipPath>
</defs>
</svg>
