<svg width="18" height="18" viewBox="0 0 18 18" fill="none" xmlns="http://www.w3.org/2000/svg">
<path d="M10 17C10.8284 17 11.5 16.3284 11.5 15.5C11.5 14.1193 12.6193 13 14 13C14.8284 13 15.5 12.3284 15.5 11.5V8.5C15.5 8.22386 15.7239 8 16 8C16.2761 8 16.5 8.22386 16.5 8.5V11.5C16.5 15.0899 13.5898 18 10 18H3C1.61929 18 0.5 16.8807 0.5 15.5V2.5C0.5 1.11929 1.61929 0 3 0H9C9.27614 0 9.5 0.223858 9.5 0.5C9.5 0.776142 9.27614 1 9 1H3C2.17157 1 1.5 1.67157 1.5 2.5V15.5C1.5 16.3284 2.17157 17 3 17H10ZM12.2913 16.5014C13.4874 15.9526 14.4526 14.9874 15.0014 13.7913C14.6948 13.9255 14.3561 14 14 14C13.1716 14 12.5 14.6716 12.5 15.5C12.5 15.8561 12.4255 16.1948 12.2913 16.5014ZM14.5 3H17C17.2761 3 17.5 3.22386 17.5 3.5C17.5 3.77614 17.2761 4 17 4H14.5V6.5C14.5 6.77614 14.2761 7 14 7C13.7239 7 13.5 6.77614 13.5 6.5V4H11C10.7239 4 10.5 3.77614 10.5 3.5C10.5 3.22386 10.7239 3 11 3H13.5V0.5C13.5 0.223858 13.7239 0 14 0C14.2761 0 14.5 0.223858 14.5 0.5V3ZM5 6C4.72386 6 4.5 5.77614 4.5 5.5C4.5 5.22386 4.72386 5 5 5H9C9.27614 5 9.5 5.22386 9.5 5.5C9.5 5.77614 9.27614 6 9 6H5ZM5 9C4.72386 9 4.5 8.77614 4.5 8.5C4.5 8.22386 4.72386 8 5 8H12C12.2761 8 12.5 8.22386 12.5 8.5C12.5 8.77614 12.2761 9 12 9H5ZM5 12C4.72386 12 4.5 11.7761 4.5 11.5C4.5 11.2239 4.72386 11 5 11H10C10.2761 11 10.5 11.2239 10.5 11.5C10.5 11.7761 10.2761 12 10 12H5Z" fill="#F7F7F7"/>
</svg>
