<svg width="36" height="22" viewBox="0 0 36 22" fill="none" xmlns="http://www.w3.org/2000/svg">
<path d="M3.00146 11.2246L2.24914 10.5658C1.91891 10.9429 1.91891 11.5062 2.24914 11.8834L3.00146 11.2246ZM33.0024 11.2246L33.7547 11.8834C34.085 11.5062 34.085 10.9429 33.7547 10.5658L33.0024 11.2246ZM3.75379 11.8834C7.22534 7.91898 12.321 5.41797 18.0019 5.41797V3.41797C11.7205 3.41797 6.08432 6.18614 2.24914 10.5658L3.75379 11.8834ZM18.0019 5.41797C23.6829 5.41797 28.7785 7.91898 32.2501 11.8834L33.7547 10.5658C29.9195 6.18614 24.2834 3.41797 18.0019 3.41797V5.41797ZM32.2501 10.5658C28.7785 14.5302 23.6829 17.0312 18.0019 17.0312V19.0312C24.2834 19.0312 29.9195 16.263 33.7547 11.8834L32.2501 10.5658ZM18.0019 17.0312C12.321 17.0312 7.22534 14.5302 3.75379 10.5658L2.24914 11.8834C6.08432 16.263 11.7205 19.0312 18.0019 19.0312V17.0312Z" fill="#3D3D3D"/>
<circle cx="17.25" cy="10.25" r="5.25" stroke="#3D3D3D" stroke-width="2"/>
</svg>
