<svg width="24" height="25" viewBox="0 0 24 25" fill="none" xmlns="http://www.w3.org/2000/svg">
<g clip-path="url(#clip0_5392_20971)">
<path d="M12 24.5C18.629 24.5 24 19.129 24 12.5C24 5.871 18.629 0.5 12 0.5C5.371 0.5 0 5.871 0 12.5C0 19.129 5.371 24.5 12 24.5ZM5.491 12.24L17.061 7.779C17.598 7.585 18.067 7.91 17.893 8.722L17.894 8.721L15.924 18.002C15.778 18.66 15.387 18.82 14.84 18.51L11.84 16.299L10.393 17.693C10.233 17.853 10.098 17.988 9.788 17.988L10.001 14.935L15.561 9.912C15.803 9.699 15.507 9.579 15.188 9.791L8.317 14.117L5.355 13.193C4.712 12.989 4.698 12.55 5.491 12.24Z" fill="#F7F7F7"/>
</g>
<defs>
<clipPath id="clip0_5392_20971">
<rect width="24" height="24" fill="white" transform="translate(0 0.5)"/>
</clipPath>
</defs>
</svg>
