<svg width="34" height="34" viewBox="0 0 34 34" fill="none" xmlns="http://www.w3.org/2000/svg">
<path d="M12.2755 29.2755L17 24.5568L21.7245 29.2755L17 34L12.2755 29.2755ZM23.1378 27.8622L27.8622 23.1378L23.1378 18.4191L18.4191 23.1378L23.1378 27.8622ZM10.8622 27.8622L15.5752 23.1378L10.8565 18.4191L6.132 23.1378L10.8622 27.8622ZM4.72447 21.7245L9.44316 17L4.72447 12.2755L0 17L4.72447 21.7245ZM10.8622 6.1493L6.13777 10.8738L10.8622 15.5752L15.5752 10.8622L10.8622 6.1493ZM12.2755 4.736L18.4191 10.8622L12.2755 17L17 21.7245L23.1378 15.5752L29.2755 21.7245L34 17L17 0L12.2755 4.736Z" fill="#031D44"/>
</svg>
