<svg width="24" height="25" viewBox="0 0 24 25" fill="none" xmlns="http://www.w3.org/2000/svg">
<path d="M23.0662 11.85C23.0747 11.85 23.0826 11.85 23.0911 11.85C23.3499 11.85 23.5959 11.7398 23.7686 11.5471C23.9468 11.3478 24.0286 11.0801 23.991 10.8154C23.2456 5.47598 18.9931 1.23732 13.6504 0.507955C13.3862 0.473425 13.1238 0.552177 12.9256 0.727248C12.7274 0.90232 12.6153 1.15614 12.6183 1.42026C12.7262 10.0521 14.2886 11.612 23.0662 11.85ZM23.0669 13.1488C14.2873 13.3821 12.725 14.942 12.6183 23.5798C12.6153 23.8445 12.7274 24.0972 12.9256 24.2722C13.0923 24.42 13.3074 24.5 13.5274 24.5C13.568 24.5 13.6092 24.4976 13.6504 24.4915C18.9944 23.7622 23.2468 19.5229 23.991 14.1829C24.0286 13.9182 23.9468 13.651 23.7686 13.4517C23.5898 13.2524 23.3317 13.1355 23.0669 13.1488ZM0.931735 13.144C0.666295 13.1307 0.408734 13.2476 0.231168 13.4469C0.0529961 13.6462 -0.0282115 13.9133 0.00875609 14.1775C0.751138 19.5205 5.00363 23.7616 10.35 24.4915C10.3912 24.497 10.4324 24.5 10.473 24.5C10.693 24.5 10.9081 24.42 11.0748 24.2722C11.273 24.0972 11.3851 23.8445 11.3821 23.5798C11.2754 14.928 9.71245 13.3675 0.931735 13.144ZM10.35 0.508561C5.00363 1.23853 0.751138 5.47962 0.00875609 10.8226C-0.0282115 11.0874 0.0529961 11.3539 0.231168 11.5532C0.403279 11.7464 0.649932 11.8561 0.908705 11.8561C0.916584 11.8561 0.923856 11.8561 0.931735 11.8561C9.71245 11.6326 11.2754 10.0721 11.3821 1.42026C11.3851 1.15554 11.273 0.902926 11.0748 0.727854C10.8772 0.553389 10.616 0.474031 10.35 0.508561Z" fill="#F7F7F7"/>
</svg>
