<svg width="135" height="40" viewBox="0 0 135 40" fill="none" xmlns="http://www.w3.org/2000/svg">
<path d="M3.94723 17.1083H0V13.4294H11.8383V17.1083H7.89105V26.6185H3.94723V17.1083ZM19.1021 26.9983C18.2107 27.006 17.327 26.816 16.5047 26.4397C15.7207 26.0868 15.0048 25.5751 14.3948 24.9317C13.7974 24.2945 13.3202 23.5354 12.9904 22.6975C12.6532 21.8491 12.4792 20.934 12.4792 20.009C12.4792 19.0841 12.6532 18.169 12.9904 17.3206C13.3202 16.4826 13.7974 15.7236 14.3948 15.0864C15.0032 14.4508 15.7155 13.9456 16.4945 13.5969C17.3168 13.2207 18.2004 13.0307 19.0919 13.0384C20.0002 13.0271 20.9012 13.2171 21.7404 13.5969C22.5168 13.9448 23.2258 14.4502 23.83 15.0864C24.4118 15.7283 24.8748 16.4869 25.1934 17.3206C25.5253 18.1703 25.6947 19.0852 25.6911 20.009V20.7538H16.5218C16.5929 21.5247 16.8907 22.2498 17.3705 22.8204C17.5942 23.0618 17.8609 23.2505 18.1541 23.3747C18.4473 23.499 18.7607 23.5562 19.0749 23.5428C19.4671 23.5563 19.8581 23.4881 20.227 23.3417C20.4889 23.2339 20.7287 23.0707 20.9326 22.8613C21.1316 22.6629 21.2896 22.4204 21.3962 22.1501H25.5752C25.3102 23.0374 24.8835 23.8569 24.3208 24.5593C24.0669 24.8849 23.7837 25.1818 23.4755 25.4455C23.1221 25.747 22.7405 26.0066 22.337 26.22C21.8747 26.4613 21.3886 26.6437 20.8883 26.7637C20.3028 26.9149 19.7037 26.9936 19.1021 26.9983ZM21.553 18.6276C21.4199 18.0524 21.1327 17.5338 20.7281 17.1381C20.2766 16.7218 19.7049 16.4934 19.1141 16.4934C18.5233 16.4934 17.9515 16.7218 17.5001 17.1381C17.0955 17.5338 16.8082 18.0524 16.6752 18.6276H21.553ZM29.3929 19.7707L26.2569 13.4405H30.5518L32.3925 17.9871H33.0742L34.932 13.4219H39.2269L36.0943 19.7521L39.4587 26.5999H35.0615L33.0879 21.9081H32.4061L30.4155 26.6185H26.0081L29.3929 19.7707ZM40.6415 13.4405H44.5887V18.1323H48.7677V13.4294H52.7115V26.6185H48.7575V21.8001H44.5785V26.6185H40.6415V13.4405ZM61.1787 26.9983C59.3919 27.0164 57.6685 26.2754 56.3724 24.9317C55.7698 24.297 55.2889 23.5375 54.9579 22.6975C54.6207 21.8491 54.4467 20.934 54.4467 20.009C54.4467 19.0841 54.6207 18.169 54.9579 17.3206C55.2889 16.4806 55.7698 15.7211 56.3724 15.0864C57.6714 13.7465 59.3904 13 61.177 13C62.9635 13 64.6825 13.7465 65.9815 15.0864C66.584 15.722 67.0659 16.4812 67.3995 17.3206C67.7367 18.169 67.9107 19.0841 67.9107 20.009C67.9107 20.934 67.7367 21.8491 67.3995 22.6975C67.0659 23.5369 66.584 24.2961 65.9815 24.9317C64.6872 26.2762 62.9646 27.0174 61.1787 26.9983ZM61.1787 23.3193C61.5351 23.3278 61.8892 23.2531 62.2171 23.1002C62.5451 22.9474 62.8395 22.72 63.0807 22.4331C63.6154 21.7708 63.8908 20.9057 63.8476 20.0239C63.8908 19.1421 63.6154 18.277 63.0807 17.6147C62.8345 17.3344 62.5389 17.1113 62.2117 16.9589C61.8846 16.8066 61.5326 16.728 61.177 16.728C60.8213 16.728 60.4693 16.8066 60.1422 16.9589C59.815 17.1113 59.5194 17.3344 59.2732 17.6147C58.7381 18.2766 58.4637 19.1423 58.5097 20.0239C58.4637 20.9055 58.7381 21.7713 59.2732 22.4331C59.5148 22.7205 59.8097 22.9482 60.1383 23.101C60.4669 23.2539 60.8216 23.3283 61.1787 23.3193ZM75.495 26.9983C74.6257 27.005 73.7645 26.8148 72.9658 26.4397C72.1967 26.0833 71.4959 25.5716 70.9002 24.9317C70.3091 24.291 69.8359 23.5326 69.506 22.6975C69.1688 21.8491 68.9948 20.934 68.9948 20.009C68.9948 19.0841 69.1688 18.169 69.506 17.3206C69.8359 16.4854 70.3091 15.7271 70.9002 15.0864C71.4973 14.4531 72.198 13.9478 72.9658 13.5969C73.7645 13.2219 74.6257 13.0317 75.495 13.0384C76.1247 13.0302 76.7526 13.1116 77.363 13.2804C77.8741 13.4252 78.3682 13.6338 78.8355 13.9023C79.2437 14.1338 79.6192 14.4285 79.9502 14.7773C80.2458 15.0869 80.5182 15.4219 80.7648 15.779C81.2969 16.5982 81.6778 17.5227 81.8863 18.501H77.8163C77.5799 17.8614 77.144 17.3338 76.5858 17.0115C76.2742 16.8371 75.9306 16.7418 75.5806 16.7328C75.2306 16.7238 74.8832 16.8012 74.5645 16.9594C74.2661 17.1157 74.0013 17.339 73.7873 17.6147C73.552 17.9215 73.3716 18.274 73.2555 18.6536C73.1181 19.0946 73.0512 19.5581 73.0578 20.0239C73.0512 20.4897 73.1181 20.9532 73.2555 21.3942C73.3716 21.7739 73.552 22.1263 73.7873 22.4331C74.0009 22.7102 74.2658 22.9348 74.5645 23.0922C74.8552 23.2429 75.1732 23.3205 75.495 23.3193C75.8919 23.3346 76.2862 23.2439 76.6438 23.055C76.9164 22.9026 77.1577 22.691 77.3528 22.4331C77.5568 22.1721 77.714 21.8714 77.8163 21.5469H81.8863C81.6832 22.5297 81.3057 23.4596 80.7751 24.2838C80.5284 24.6409 80.256 24.9758 79.9604 25.2854C79.6274 25.6417 79.2484 25.9428 78.8355 26.1791C78.3696 26.4472 77.875 26.6511 77.363 26.786C76.7508 26.941 76.1233 27.0123 75.495 26.9983ZM86.5493 17.1083H82.6021V13.4294H94.4404V17.1083H90.4931V26.6185H86.5493V17.1083ZM95.6539 13.4294H99.6113V18.7579L99.3761 20.7835H99.6113L103.903 13.4294H107.966V26.6185H104.012V21.29L104.244 19.2643H104.012L99.717 26.6185H95.6539V13.4294ZM112.196 13.4294H119.382L122.398 26.6185H118.461L116.256 17.1083H115.329L113.123 26.6185H109.176L112.196 13.4294ZM123.629 13.4294H127.562V17.4881H130.115C130.811 17.4772 131.502 17.5968 132.161 17.8419C132.728 18.0529 133.251 18.3859 133.698 18.8212C134.111 19.2256 134.44 19.7221 134.663 20.2771C134.885 20.8397 135 21.446 135 22.0589C135 22.6717 134.885 23.2781 134.663 23.8406C134.437 24.3907 134.109 24.883 133.698 25.2854C133.252 25.7187 132.732 26.0504 132.167 26.261C131.511 26.5142 130.819 26.6402 130.122 26.6334H123.629V13.4294ZM129.662 23.3193C130.038 23.3522 130.411 23.2299 130.709 22.9768C130.934 22.7297 131.061 22.3949 131.061 22.0459C131.061 21.6968 130.934 21.3621 130.709 21.1149C130.41 20.8634 130.038 20.7413 129.662 20.7724H127.562V23.3082L129.662 23.3193Z" fill="white"/>
</svg>
