<svg width="135" height="40" viewBox="0 0 135 40" fill="none" xmlns="http://www.w3.org/2000/svg">
<path d="M3.94723 17.3149H0V13.8987H11.8383V17.3149H7.89105V26.1457H3.94723V17.3149ZM19.1021 26.4984C18.2107 26.5055 17.327 26.3291 16.5047 25.9798C15.7207 25.652 15.0048 25.1769 14.3948 24.5794C13.7974 23.9877 13.3202 23.2829 12.9904 22.5048C12.6532 21.717 12.4792 20.8673 12.4792 20.0084C12.4792 19.1495 12.6532 18.2998 12.9904 17.512C13.3202 16.7339 13.7974 16.029 14.3948 15.4374C15.0032 14.8472 15.7155 14.378 16.4945 14.0543C17.3168 13.705 18.2004 13.5285 19.0919 13.5357C20.0002 13.5251 20.9012 13.7016 21.7404 14.0543C22.5168 14.3773 23.2258 14.8466 23.83 15.4374C24.4118 16.0334 24.8748 16.7379 25.1934 17.512C25.5253 18.301 25.6947 19.1505 25.6911 20.0084V20.6999H16.5218C16.5929 21.4158 16.8907 22.0891 17.3705 22.6189C17.5942 22.8431 17.8609 23.0183 18.1541 23.1337C18.4473 23.249 18.7607 23.3022 19.0749 23.2897C19.4671 23.3023 19.8581 23.2389 20.227 23.103C20.4889 23.0029 20.7287 22.8513 20.9326 22.6569C21.1316 22.4727 21.2896 22.2475 21.3962 21.9965H25.5752C25.3102 22.8205 24.8835 23.5815 24.3208 24.2336C24.0669 24.536 23.7837 24.8116 23.4755 25.0566C23.1221 25.3365 22.7405 25.5776 22.337 25.7758C21.8747 25.9998 21.3886 26.1691 20.8883 26.2806C20.3028 26.421 19.7037 26.494 19.1021 26.4984ZM21.553 18.7256C21.4199 18.1915 21.1327 17.71 20.7281 17.3425C20.2766 16.9559 19.7049 16.7438 19.1141 16.7438C18.5233 16.7438 17.9515 16.9559 17.5001 17.3425C17.0955 17.71 16.8082 18.1915 16.6752 18.7256H21.553ZM29.3929 19.7871L26.2569 13.9091H30.5518L32.3925 18.1309H33.0742L34.932 13.8918H39.2269L36.0943 19.7698L39.4587 26.1284H35.0615L33.0879 21.7718H32.4061L30.4155 26.1457H26.0081L29.3929 19.7871ZM40.6415 13.9091H44.5887V18.2657H48.7677V13.8987H52.7115V26.1457H48.7575V21.6715H44.5785V26.1457H40.6415V13.9091ZM61.1787 26.4984C59.3919 26.5152 57.6685 25.8271 56.3724 24.5794C55.7698 23.99 55.2889 23.2848 54.9579 22.5048C54.6207 21.717 54.4467 20.8673 54.4467 20.0084C54.4467 19.1495 54.6207 18.2998 54.9579 17.512C55.2889 16.732 55.7698 16.0267 56.3724 15.4374C57.6714 14.1931 59.3904 13.5 61.177 13.5C62.9635 13.5 64.6825 14.1931 65.9815 15.4374C66.584 16.0276 67.0659 16.7325 67.3995 17.512C67.7367 18.2998 67.9107 19.1495 67.9107 20.0084C67.9107 20.8673 67.7367 21.717 67.3995 22.5048C67.0659 23.2842 66.584 23.9892 65.9815 24.5794C64.6872 25.8279 62.9646 26.5161 61.1787 26.4984ZM61.1787 23.0822C61.5351 23.0901 61.8892 23.0207 62.2171 22.8788C62.5451 22.7369 62.8395 22.5257 63.0807 22.2593C63.6154 21.6444 63.8908 20.841 63.8476 20.0222C63.8908 19.2034 63.6154 18.4001 63.0807 17.7851C62.8345 17.5248 62.5389 17.3177 62.2117 17.1762C61.8846 17.0347 61.5326 16.9617 61.177 16.9617C60.8213 16.9617 60.4693 17.0347 60.1422 17.1762C59.815 17.3177 59.5194 17.5248 59.2732 17.7851C58.7381 18.3997 58.4637 19.2036 58.5097 20.0222C58.4637 20.8408 58.7381 21.6448 59.2732 22.2593C59.5148 22.5262 59.8097 22.7376 60.1383 22.8795C60.4669 23.0214 60.8216 23.0906 61.1787 23.0822ZM75.495 26.4984C74.6257 26.5046 73.7645 26.328 72.9658 25.9798C72.1967 25.6487 71.4959 25.1737 70.9002 24.5794C70.3091 23.9845 69.8359 23.2803 69.506 22.5048C69.1688 21.717 68.9948 20.8673 68.9948 20.0084C68.9948 19.1495 69.1688 18.2998 69.506 17.512C69.8359 16.7365 70.3091 16.0323 70.9002 15.4374C71.4973 14.8493 72.198 14.3801 72.9658 14.0543C73.7645 13.706 74.6257 13.5294 75.495 13.5357C76.1247 13.5281 76.7526 13.6036 77.363 13.7604C77.8741 13.8948 78.3682 14.0886 78.8355 14.3378C79.2437 14.5528 79.6192 14.8265 79.9502 15.1504C80.2458 15.4379 80.5182 15.7489 80.7648 16.0805C81.2969 16.8411 81.6778 17.6996 81.8863 18.608H77.8163C77.5799 18.0142 77.144 17.5243 76.5858 17.225C76.2742 17.063 75.9306 16.9746 75.5806 16.9662C75.2306 16.9578 74.8832 17.0297 74.5645 17.1766C74.2661 17.3217 74.0013 17.5291 73.7873 17.7851C73.552 18.07 73.3716 18.3973 73.2555 18.7498C73.1181 19.1593 73.0512 19.5897 73.0578 20.0222C73.0512 20.4547 73.1181 20.8852 73.2555 21.2946C73.3716 21.6472 73.552 21.9744 73.7873 22.2593C74.0009 22.5166 74.2658 22.7252 74.5645 22.8713C74.8552 23.0113 75.1732 23.0833 75.495 23.0822C75.8919 23.0964 76.2862 23.0122 76.6438 22.8367C76.9164 22.6953 77.1577 22.4988 77.3528 22.2593C77.5568 22.0169 77.714 21.7378 77.8163 21.4364H81.8863C81.6832 22.3491 81.3057 23.2125 80.7751 23.9778C80.5284 24.3094 80.256 24.6204 79.9604 24.9079C79.6274 25.2387 79.2484 25.5183 78.8355 25.7377C78.3696 25.9867 77.875 26.176 77.363 26.3013C76.7508 26.4452 76.1233 26.5114 75.495 26.4984ZM86.5493 17.3149H82.6021V13.8987H94.4404V17.3149H90.4931V26.1457H86.5493V17.3149ZM95.6539 13.8987H99.6113V18.8466L99.3761 20.7276H99.6113L103.903 13.8987H107.966V26.1457H104.012V21.1978L104.244 19.3169H104.012L99.717 26.1457H95.6539V13.8987ZM112.196 13.8987H119.382L122.398 26.1457H118.461L116.256 17.3149H115.329L113.123 26.1457H109.176L112.196 13.8987ZM123.629 13.8987H127.562V17.6676H130.115C130.811 17.6574 131.502 17.7685 132.161 17.996C132.728 18.192 133.251 18.5012 133.698 18.9054C134.111 19.2809 134.44 19.7419 134.663 20.2573C134.885 20.7797 135 21.3428 135 21.9118C135 22.4809 134.885 23.0439 134.663 23.5663C134.437 24.0771 134.109 24.5342 133.698 24.9079C133.252 25.3102 132.732 25.6182 132.167 25.8138C131.511 26.0489 130.819 26.1659 130.122 26.1596H123.629V13.8987ZM129.662 23.0822C130.038 23.1127 130.411 22.9992 130.709 22.7641C130.934 22.5347 131.061 22.2238 131.061 21.8997C131.061 21.5756 130.934 21.2648 130.709 21.0353C130.41 20.8017 130.038 20.6884 129.662 20.7172H127.562V23.0719L129.662 23.0822Z" fill="#031D44"/>
</svg>
