<svg width="22" height="22" viewBox="0 0 22 22" fill="none" xmlns="http://www.w3.org/2000/svg">
<path d="M7.94299 18.943L11 15.8897L14.057 18.943L11 22L7.94299 18.943ZM14.9715 18.0285L18.0285 14.9715L14.9715 11.9182L11.9182 14.9715L14.9715 18.0285ZM7.0285 18.0285L10.078 14.9715L7.02477 11.9182L3.96776 14.9715L7.0285 18.0285ZM3.05701 14.057L6.11028 11L3.05701 7.94299L0 11L3.05701 14.057ZM7.0285 3.97896L3.9715 7.03597L7.0285 10.078L10.078 7.0285L7.0285 3.97896ZM7.94299 3.06447L11.9182 7.0285L7.94299 11L11 14.057L14.9715 10.078L18.943 14.057L22 11L11 0L7.94299 3.06447Z" fill="white"/>
</svg>
